<?xml version="1.0" standalone="no"?>
<!DOCTYPE svg PUBLIC "-//W3C//DTD SVG 20010904//EN"
 "http://www.w3.org/TR/2001/REC-SVG-20010904/DTD/svg10.dtd">
<svg version="1.0" xmlns="http://www.w3.org/2000/svg"
 width="110.000000pt" height="110.000000pt" viewBox="0 0 110.000000 110.000000"
 preserveAspectRatio="xMidYMid meet">
<metadata>
Created by potrace 1.14, written by Peter Selinger 2001-2017
</metadata>
<g transform="translate(0.000000,110.000000) scale(0.100000,-0.100000)"
fill="#000000" stroke="none">
<path d="M23 1082 c-22 -17 -22 -18 -23 -359 l0 -342 57 -4 58 -3 -57 -2 c-55
-2 -58 -3 -58 -27 0 -14 6 -25 13 -25 7 0 8 -3 2 -8 -6 -4 -11 -73 -13 -159
l-3 -153 551 0 550 0 0 550 0 550 -527 0 c-485 0 -530 -2 -550 -18z m609 -230
c24 -39 20 -46 -24 -38 -42 8 -84 76 -67 108 10 19 12 19 41 -8 16 -16 39 -44
50 -62z m104 -102 c74 -36 78 -51 24 -88 -19 -13 -36 -27 -38 -32 -5 -13 81
-140 95 -140 7 0 28 14 47 31 37 32 68 33 80 2 15 -39 -37 -88 -81 -77 -16 4
-22 0 -27 -20 -8 -31 -77 -89 -142 -118 -68 -30 -204 -37 -276 -13 -66 21
-131 66 -157 108 -25 40 -44 117 -27 111 6 -2 26 19 44 46 31 48 32 51 16 75
-16 25 -16 27 7 51 65 70 167 106 287 100 69 -3 95 -10 148 -36z m-529 -287
c6 -27 9 -49 8 -51 -2 -2 -13 3 -24 10 -25 15 -35 41 -26 68 11 34 30 22 42
-27z m-77 -153 c0 -5 -9 -10 -21 -10 -11 0 -17 5 -14 10 3 6 13 10 21 10 8 0
14 -4 14 -10z m460 -72 c-1 -7 -9 -28 -19 -47 l-18 -35 -13 25 c-7 13 -20 34
-28 47 -14 22 -14 22 32 22 30 0 46 -4 46 -12z"/>
<path d="M318 599 c-10 -6 -18 -17 -18 -24 0 -18 12 -19 29 -2 11 10 14 10 18
0 6 -16 36 -17 31 -1 -8 22 -42 37 -60 27z"/>
<path d="M618 591 c-13 -11 -18 -23 -14 -30 6 -9 13 -8 27 5 15 14 21 15 34 4
18 -15 28 -9 20 13 -9 23 -43 27 -67 8z"/>
<path d="M430 583 c-33 -13 -50 -37 -48 -67 1 -18 -10 -52 -25 -80 -14 -27
-24 -53 -20 -59 23 -37 182 -50 242 -19 34 16 58 49 30 40 -22 -7 -59 73 -53
113 5 26 1 39 -14 52 -21 19 -86 31 -112 20z m94 -39 c21 -21 20 -30 -6 -48
-30 -21 -71 -20 -99 3 -23 19 -24 19 -5 40 23 26 87 29 110 5z m16 -116 c22
-18 40 -36 40 -40 0 -4 -19 -12 -42 -19 -48 -12 -119 -7 -162 12 l-27 13 38
33 c52 45 100 45 153 1z"/>
</g>
</svg>
