<?xml version="1.0" standalone="no"?>
<!DOCTYPE svg PUBLIC "-//W3C//DTD SVG 20010904//EN"
 "http://www.w3.org/TR/2001/REC-SVG-20010904/DTD/svg10.dtd">
<svg version="1.0" xmlns="http://www.w3.org/2000/svg"
 width="260.000000pt" height="260.000000pt" viewBox="0 0 260.000000 260.000000"
 preserveAspectRatio="xMidYMid meet">
<metadata>
Created by potrace 1.14, written by Peter Selinger 2001-2017
</metadata>
<g transform="translate(0.000000,260.000000) scale(0.100000,-0.100000)"
fill="#000000" stroke="none">
<path d="M1022 2415 c-39 -21 -93 -78 -108 -114 -17 -41 -18 -153 -2 -184 22
-39 92 -107 109 -107 10 0 21 -4 24 -10 11 -18 94 -11 141 12 l47 21 28 -34
c36 -42 59 -86 59 -111 0 -13 -8 -18 -27 -18 -61 -1 -149 -13 -158 -21 -5 -5
-22 -9 -37 -9 -16 0 -36 -4 -46 -9 -9 -5 -48 -22 -87 -37 -129 -52 -263 -151
-336 -250 -45 -62 -109 -196 -109 -230 0 -13 -4 -32 -9 -42 -5 -9 -12 -24 -14
-33 -3 -9 -19 -19 -35 -22 -43 -9 -96 -59 -112 -106 -14 -45 -4 -100 27 -148
29 -43 98 -83 160 -91 55 -8 61 -12 128 -81 38 -39 85 -82 105 -94 38 -23 60
-42 60 -52 0 -7 -315 0 -385 10 -79 10 -78 10 -50 55 14 22 25 43 25 47 0 3 6
14 14 22 19 23 28 79 13 88 -7 4 -39 6 -73 4 -34 -1 -103 2 -155 8 -212 23
-219 23 -219 8 0 -18 43 -27 134 -27 39 0 120 -5 179 -12 89 -9 107 -14 105
-27 -4 -18 1 -18 -265 -5 l-153 6 0 -45 c0 -44 1 -46 40 -59 51 -17 51 -32 0
-36 -31 -2 -40 -7 -40 -22 0 -12 8 -20 22 -22 22 -3 23 -7 28 -136 3 -73 4
-137 2 -142 -2 -6 -15 -10 -28 -10 l-24 0 0 -140 c0 -87 4 -140 10 -140 6 0
10 -7 10 -15 0 -8 -4 -15 -10 -15 -5 0 -10 -9 -10 -20 0 -18 7 -20 60 -20 59
0 79 13 41 25 -26 8 -53 51 -49 77 5 34 54 33 76 0 9 -15 25 -36 34 -46 13
-14 15 -24 7 -37 -9 -18 -5 -19 66 -19 60 0 75 3 75 15 0 8 -6 15 -13 15 -7 0
-27 17 -43 37 -16 20 -35 42 -41 49 -7 7 -13 17 -13 23 0 6 -4 11 -9 11 -5 0
-12 13 -16 30 -4 16 -11 32 -16 35 -5 4 -9 21 -9 39 0 17 -4 36 -9 42 -5 5
-11 67 -14 139 -2 72 -7 137 -11 146 -10 23 9 27 84 17 36 -5 87 -11 113 -14
33 -4 50 -11 53 -23 3 -9 10 -24 15 -33 5 -10 9 -26 9 -35 0 -10 7 -27 15 -37
8 -11 15 -28 15 -38 0 -10 5 -18 10 -18 6 0 10 -11 10 -24 0 -14 4 -28 10 -31
5 -3 10 -17 10 -29 0 -13 7 -29 15 -36 8 -7 15 -21 15 -31 0 -10 5 -21 10 -24
6 -3 10 -15 10 -25 0 -10 3 -20 8 -22 10 -4 42 -67 42 -84 0 -8 5 -14 10 -14
6 0 10 -9 10 -20 0 -11 8 -29 17 -40 17 -19 29 -20 348 -20 l330 0 12 40 c12
36 53 132 74 172 5 10 9 22 9 28 0 5 11 33 24 62 13 29 34 76 46 103 13 28 31
73 40 100 12 34 26 54 45 63 14 8 29 11 32 8 6 -6 -24 -81 -91 -228 -14 -31
-26 -59 -26 -62 0 -3 -12 -31 -26 -63 -27 -62 -33 -75 -58 -138 -10 -22 -21
-48 -26 -57 -6 -10 -10 -20 -10 -23 0 -3 146 -5 325 -5 266 0 325 2 325 13 0
18 28 75 41 82 5 4 9 15 9 26 0 10 5 19 10 19 6 0 10 5 10 10 0 6 11 28 25 50
14 22 25 46 25 55 0 8 3 15 8 15 7 0 10 5 46 77 11 21 31 55 44 77 l24 39 24
-26 c13 -14 24 -30 24 -36 0 -5 4 -11 8 -13 5 -1 26 -28 48 -58 21 -30 43 -60
49 -67 15 -18 27 -34 59 -78 17 -22 40 -50 53 -62 13 -12 23 -27 23 -33 0 -5
5 -10 10 -10 6 0 10 -5 10 -10 0 -21 44 -70 62 -70 14 0 18 8 18 34 0 19 -4
36 -8 38 -8 3 -40 44 -147 188 -57 77 -90 120 -157 204 -46 57 -60 98 -38 111
8 5 15 54 8 55 -62 13 -197 30 -238 30 -79 2 -193 24 -198 38 -2 7 2 12 10 12
24 0 132 97 188 169 53 68 57 71 97 71 79 0 185 85 196 158 6 34 -2 86 -17
122 -12 27 -83 70 -115 70 -25 0 -31 4 -31 21 0 25 -30 120 -41 134 -5 5 -9
15 -9 22 0 44 -124 184 -225 255 -54 37 -157 88 -180 88 -7 0 -17 5 -20 10 -3
6 -14 10 -24 10 -13 0 -26 20 -47 68 -15 37 -34 73 -41 80 -7 8 -18 23 -25 35
-24 46 -122 160 -167 195 -44 34 -70 70 -71 96 -1 18 -42 62 -84 90 -33 22
-49 26 -105 25 -36 -1 -76 -7 -89 -14z m362 -267 c55 -57 93 -105 118 -150 12
-21 25 -38 30 -38 4 0 8 -7 8 -15 0 -9 7 -27 16 -40 25 -38 10 -48 -65 -42
-90 6 -111 19 -143 85 -16 32 -39 69 -53 84 -14 15 -25 30 -25 34 0 16 55 124
63 124 5 0 28 -19 51 -42z m189 -338 c99 -27 125 -35 177 -59 56 -26 174 -104
186 -123 9 -15 -82 -104 -148 -144 -32 -20 -58 -41 -57 -47 1 -14 11 -30 118
-191 47 -69 90 -126 96 -126 28 0 114 54 151 95 52 56 87 60 139 14 32 -28 35
-36 35 -83 0 -47 -4 -55 -37 -88 -64 -60 -150 -87 -181 -56 -15 15 -45 -9 -37
-30 19 -49 -172 -221 -319 -287 -117 -52 -156 -63 -301 -79 -144 -16 -315 2
-428 44 -129 48 -258 143 -328 240 -33 46 -79 145 -79 170 0 11 -5 39 -12 63
-6 24 -8 52 -4 62 6 17 7 17 27 -1 20 -18 21 -18 40 6 11 14 27 39 36 55 9 17
19 32 22 35 3 3 23 31 44 62 l37 58 -35 46 c-19 25 -35 55 -35 67 1 36 93 125
195 188 51 31 164 79 187 79 9 0 19 4 22 9 3 4 25 12 48 16 24 4 66 11 93 15
64 11 293 4 348 -10z m-1073 -669 c0 -32 27 -131 55 -203 6 -15 1 -18 -28 -18
-52 0 -124 66 -132 123 -8 55 7 92 47 117 48 29 58 26 58 -19z m-158 -446 c-6
-34 -17 -39 -76 -36 -70 4 -90 16 -51 31 52 21 79 28 106 29 23 1 26 -2 21
-24z m764 -131 c11 -3 29 -22 39 -42 11 -20 39 -67 62 -105 24 -37 43 -70 43
-73 0 -3 11 -22 25 -42 25 -36 34 -96 16 -107 -9 -5 -61 53 -61 68 0 3 -27 49
-60 101 -33 53 -60 98 -60 101 0 3 -12 23 -26 45 -33 49 -26 67 22 54z m334
-20 c0 -8 -4 -22 -9 -32 -16 -30 -58 -126 -72 -164 -12 -34 -39 -53 -39 -28 0
6 -16 36 -35 66 -19 30 -35 57 -35 59 0 3 -11 23 -25 45 -14 22 -25 44 -25 50
0 6 38 10 98 10 53 0 104 4 112 9 17 12 30 5 30 -15z"/>
<path d="M765 1344 c-27 -29 -33 -64 -11 -64 7 0 21 11 30 25 9 14 26 25 37
25 12 0 30 -11 41 -25 23 -29 33 -31 42 -8 4 10 -3 26 -21 45 -36 38 -84 38
-118 2z"/>
<path d="M1488 1353 c-20 -22 -31 -60 -23 -73 8 -14 45 6 45 24 0 15 21 26 48
26 9 0 27 -12 39 -27 21 -24 25 -25 39 -11 15 14 14 19 -12 47 -23 26 -34 31
-74 31 -32 0 -52 -6 -62 -17z"/>
<path d="M1080 1330 c-8 -5 -23 -10 -33 -10 -26 0 -91 -49 -105 -79 -15 -32
-15 -86 -1 -109 9 -15 6 -26 -15 -60 -14 -23 -26 -44 -26 -47 0 -2 -16 -29
-35 -59 -19 -30 -35 -58 -35 -61 0 -13 27 -3 50 18 14 12 43 36 65 52 22 17
49 38 59 48 24 21 19 20 131 17 82 -2 93 -4 120 -29 63 -56 134 -111 144 -111
16 0 13 18 -6 48 -28 42 -40 64 -64 109 -21 40 -21 43 -6 67 20 30 22 82 5
118 -32 67 -192 124 -248 88z m125 -44 c62 -21 97 -61 93 -104 -2 -29 -11 -43
-46 -69 -39 -29 -51 -33 -108 -33 -139 0 -221 94 -144 166 51 49 133 65 205
40z"/>
<path d="M1430 871 c-26 -18 -78 -40 -141 -60 -50 -15 -227 -14 -292 3 -30 8
-74 24 -97 35 -53 25 -73 27 -68 4 4 -21 80 -59 156 -79 64 -17 271 -15 332 3
62 18 155 67 158 84 4 24 -20 29 -48 10z"/>
<path d="M0 1266 c0 -20 5 -36 10 -36 6 0 10 13 10 29 0 17 -4 33 -10 36 -6 4
-10 -8 -10 -29z"/>
<path d="M0 501 c0 -28 5 -51 10 -51 6 0 10 20 10 44 0 25 -4 48 -10 51 -6 4
-10 -13 -10 -44z"/>
</g>
</svg>
